<svg xmlns="http://www.w3.org/2000/svg" viewBox="0 0 195.18 237.06"><defs><style>.cls-1{fill:#1a445e;}</style></defs><title>Asset 1</title><g id="Layer_2" data-name="Layer 2"><g id="Layer_1-2" data-name="Layer 1"><path class="cls-1" d="M21.91,100.82q-6.3-5.32-6.3-14.91,0-11.82,7.81-16.81t21.88-5h21V60c0-5-1.37-8.65-4.08-11s-7.49-3.48-14.31-3.48a45.85,45.85,0,0,0-10.38,1.19,45.62,45.62,0,0,0-9.33,3.15,11.11,11.11,0,0,1-1.84.53c-.7,0-1.36-.53-2-1.58l-3.28-6.18a3.57,3.57,0,0,1-.53-1.84A2,2,0,0,1,22,39a50.34,50.34,0,0,1,12.55-4.21,73.54,73.54,0,0,1,15.3-1.58,54.46,54.46,0,0,1,15.51,2,61.43,61.43,0,0,1,8.27-4.59A23.67,23.67,0,0,1,80,28.5l1.18-.12a3.14,3.14,0,0,1,1.77.39,2.23,2.23,0,0,1,.86,1.31l2.49,6.7a7.21,7.21,0,0,1,.26,1.32c0,.87-.57,1.57-1.7,2.1l-7,3.15q5.25,6.82,5.26,18.39v37.7A5,5,0,0,1,82,103c-.74.79-2,1.18-3.87,1.18H71.31A5.25,5.25,0,0,1,67.49,103a4.85,4.85,0,0,1-1.17-3.55V75.93H44.64q-7.1,0-10.18,2.17t-3.09,7.55q0,4.86,2.56,6.83t7.82,2a21.1,21.1,0,0,0,8-1.44l1.05-.27c.7,0,1.19.57,1.45,1.71L54.1,101a3.14,3.14,0,0,1,.13.92c0,.79-.53,1.4-1.58,1.84q-4.86,2.37-14.45,2.36Q28.23,106.14,21.91,100.82Z"/><path class="cls-1" d="M53.64,19.57q-2-2.24-2-7.35V4.73c0-1.84.33-3.09,1-3.75s1.91-1,3.75-1h4.73a4.91,4.91,0,0,1,3.48,1c.65.66,1,1.91,1,3.75V11.3c4.46-.44,9.83-.83,16.08-1.19s10.89-.52,13.86-.52c1.75,0,2.92.28,3.49.85a4.64,4.64,0,0,1,.85,3.22V17.6A4.93,4.93,0,0,1,99,20.89c-.57.61-1.74.92-3.49.92H60.8Q55.67,21.81,53.64,19.57Z"/><path class="cls-1" d="M140,149.3a1.93,1.93,0,0,1-1.12-1.75,3.28,3.28,0,0,1,.37-1.49l3.24-6c.42-1,1-1.49,1.75-1.49a3.53,3.53,0,0,1,1.75.5,35.78,35.78,0,0,0,16.85,3.74q8.73,0,12.61-4.06t4.24-12.54a18.17,18.17,0,0,1-6.56,3.25,31.44,31.44,0,0,1-8.67,1.12q-14.85,0-22.22-6.49t-7.36-18.85v-8q0-7.73-3.18-11.29T120.55,82.4a27.17,27.17,0,0,0-9.24,1.44A24.73,24.73,0,0,0,104,88l1.87,3.87a16.38,16.38,0,0,1,1.37,3.62,19.43,19.43,0,0,1,.38,4.24v22.47a3.89,3.89,0,0,0,.62,2.56,3,3,0,0,0,2.25.68h3.49a2.81,2.81,0,0,1,3.37,3.37v5.49c0,1.42-.31,2.35-.93,2.81s-1.9.69-3.81.69H99.45q-4.62,0-6.24-1.81t-1.62-6.18V96.38L88.47,89a9.63,9.63,0,0,1-1-3.75,3.8,3.8,0,0,1,1.37-2.87q14.23-12,31.58-12,16.23,0,23.4,6.86T151,98.13v7.49q0,6.73,3.31,10t10.79,3.25q7.36,0,10.68-3.19t3.3-9.79v-29a4.75,4.75,0,0,1,1.13-3.49,4.93,4.93,0,0,1,3.61-1.13h6.5q4.86,0,4.86,4.62V118.6q0,18-7.42,27t-24.65,9Q149.13,154.67,140,149.3Z"/><path class="cls-1" d="M52.55,192.87a1.94,1.94,0,0,1-1.13-1.75,3.34,3.34,0,0,1,.38-1.5l3.24-6c.42-1,1-1.5,1.75-1.5a3.53,3.53,0,0,1,1.75.5,35.66,35.66,0,0,0,16.85,3.75q8.73,0,12.6-4.06t4.25-12.54A18.16,18.16,0,0,1,85.68,173,31.43,31.43,0,0,1,77,174.15q-14.87,0-22.22-6.49t-7.36-18.85v-8q0-7.74-3.19-11.3T33.07,126a27.15,27.15,0,0,0-9.23,1.44,24.91,24.91,0,0,0-7.37,4.18l1.88,3.86a17,17,0,0,1,1.37,3.63,19.37,19.37,0,0,1,.38,4.24v22.46a3.85,3.85,0,0,0,.62,2.56A2.94,2.94,0,0,0,23,169h3.49a3.65,3.65,0,0,1,2.62.75,3.65,3.65,0,0,1,.75,2.62v5.49c0,1.42-.31,2.35-.93,2.81s-1.9.69-3.81.69H12c-3.08,0-5.16-.61-6.24-1.81s-1.62-3.27-1.62-6.18V140L1,132.58a9.54,9.54,0,0,1-1-3.74A3.8,3.8,0,0,1,1.37,126Q15.6,114,33,114q16.23,0,23.4,6.86t7.18,20.84v7.49q0,6.75,3.31,10t10.79,3.24q7.37,0,10.68-3.18t3.3-9.79v-29a4.78,4.78,0,0,1,1.13-3.5,5,5,0,0,1,3.61-1.12h6.49c3.25,0,4.31,1,4.31,4.08l.56,42.22q0,18-7.42,27t-24.65,9Q61.65,198.23,52.55,192.87Z"/><path class="cls-1" d="M142,232.72V191.34q0-6.83-2.56-9.78t-9.13-3a31.16,31.16,0,0,0-6.83.79,25.34,25.34,0,0,0-5.91,2,3.54,3.54,0,0,1-1.71.53c-.62,0-1.14-.49-1.58-1.45l-3.15-7.1a8.87,8.87,0,0,1-.26-1.18c0-.61.61-1.26,1.83-2q7.75-4.06,19.71-4.07,13.4,0,19.9,6t6.5,18.66v41.9q0,4.34-4.6,4.34h-7.75Q142,237.06,142,232.72Z"/></g></g></svg>